<svg version="1.2" xmlns="http://www.w3.org/2000/svg" viewBox="0 0 1920 1080" width="1920" height="1080">
	<title>background (2)</title>
	<style>
		.s0 { fill: #7c1919 } 
		.s1 { opacity: .1;fill: #000000 } 
	</style>
	<g id="Background">
		<path id="Path 0" class="s0" d="m0 0l983.3 0.5 82.8 308 0.1 13.5c0.1 7.7-0.4 16.7-1.1 21-0.8 4.1-2.4 10.6-3.6 14.5-1.2 3.9-3.6 9.9-5.2 13.5-1.6 3.6-4.7 9.2-7 12.5-2.5 3.8-71.2 73.1-187.4 189.2-100.9 100.8-185 184.4-186.9 185.7-1.9 1.3-6 3.8-9 5.6-3 1.8-8.4 4.1-12 5.1-3.6 1-7.6 2-9 2.3-1.4 0.3-6.5 1.7-11.5 3.1-8 2.3-10.3 2.6-21 2.2-7.9-0.3-14.7-1.2-20-2.6-4.4-1.2-12-3.3-17-4.6-4.9-1.4-15.5-4.2-23.5-6.4-8-2.1-23.9-6.4-35.5-9.5-11.5-3.1-41.9-11.2-67.5-18-25.6-6.9-49.9-13.3-54-14.5-4.1-1.1-27.1-7.2-51-13.6-23.9-6.4-46.6-12.5-50.5-13.5-3.8-1-19.8-5.3-35.5-9.5-15.7-4.2-33.2-8.9-39-10.4-5.8-1.6-24-6.5-40.5-10.9-16.5-4.4-40.3-10.8-53-14.2-12.6-3.4-26.1-7.6-30-9.5-3.8-1.8-10.6-6-15-9.2-4.4-3.3-10.9-9.1-14.5-12.9-3.6-3.8-8.4-9.6-10.6-12.9-2.3-3.3-6-9.6-8.3-14-3.6-6.9-7.1-18.9-47.1-168.5v-211z"/>
		<path id="Path 1" class="s1" d="m1090 347.1c4.7-0.1 11.2 0.4 14.5 1 3.3 0.6 22 5.3 41.5 10.6 19.5 5.2 51.3 13.7 70.5 18.8 19.3 5.1 40.2 10.7 46.5 12.4 6.3 1.7 19.8 5.4 30 8.1 10.2 2.8 27 7.3 37.5 10.1 10.5 2.8 38.3 10.2 62 16.5 23.7 6.4 46.4 12.4 50.5 13.5 4.1 1.2 19.2 5.2 33.5 9.1 14.3 3.8 29.2 7.8 33 8.8 3.8 1 26.5 7 50.3 13.4 23.7 6.4 46.2 13 50 14.7 3.7 1.7 9.6 5 13.2 7.4 3.6 2.4 10.2 8 14.8 12.4 4.5 4.5 10.4 11.4 13.1 15.3 2.6 4 5.8 9.3 7.1 11.8 1.2 2.5 2.8 5.2 3.5 6 0.8 0.8 31.3 113.1 134.3 497.5l-0.3 15c-0.1 10.5-0.8 17.3-4 30.5h-1079l-71.4-266.5 0.4-15.5c0.2-8.5 0.9-17.9 3-26.4l8-2.1c4.4-1.2 10.5-3.7 13.5-5.5 3-1.8 7.1-4.3 9-5.6 1.9-1.3 86-84.9 186.9-185.7 116.4-116.2 184.9-185.4 187.4-189.2 2.3-3.3 5.5-9.2 7.2-13 1.7-3.9 4.1-10.3 5.3-14.3 1.5-4.7 2.6-7 3.4-6.7 0.7 0.2 4.7-0.2 8.8-0.9 4.1-0.8 11.3-1.5 16-1.5z"/>
	</g>
</svg>