<svg version="1.2" xmlns="http://www.w3.org/2000/svg" viewBox="0 0 2000 2000" width="2000" height="2000">
	<title>New Project</title>
	<style>
		.s0 { fill: #000000 } 
	</style>
	<path id="Path 0" class="s0" d="m998.9 6c19.3 0 23.9 0.3 31.6 2.1 5 1.1 15.3 4.1 23 6.5 11.3 3.5 16.8 6 28.5 12.7 8 4.5 28.2 16.2 45 25.8 16.8 9.7 40.8 23.6 53.5 30.9 12.7 7.4 31.5 18.3 42 24.3 10.5 6 32.5 18.7 49 28.2 16.5 9.5 34 19.6 39 22.5 5 2.9 18 10.4 29 16.8 11 6.3 25.8 14.9 33 19 7.2 4.1 31.5 18.2 54 31.2 22.5 13 45.5 26.3 51 29.5 5.5 3.2 23.5 13.5 40 23 16.5 9.5 45.5 26.2 64.5 37.2 19 11 46.2 26.7 60.5 34.8 14.3 8.1 29.2 16.7 33 19 3.8 2.4 16.2 9.6 27.5 16.1 11.3 6.5 28.8 16.6 39 22.4 10.2 5.9 28.8 16.7 41.5 23.9 12.7 7.3 26.6 15.7 31 18.6 4.4 3 11.8 8.9 16.4 13.2 4.7 4.3 11.6 11.9 15.4 16.8 3.8 4.9 9.3 12.8 12.2 17.5 2.9 4.7 7.2 12.6 9.7 17.5 2.5 5 5.4 11.5 6.6 14.5 1.2 3 4 11.7 10.2 33v875.5l-3.4 12c-1.9 6.6-5.1 16.5-7.1 22-2.1 5.5-6.7 15.2-10.3 21.5-3.5 6.3-9.4 15.8-13.1 21-3.6 5.2-11.3 14.2-17.1 20-6.4 6.5-14 12.9-19.5 16.4-5 3.3-33.5 20.1-63.5 37.4-30 17.3-64 36.9-75.5 43.7-11.5 6.7-30.5 17.6-42 24.2-11.5 6.7-35.8 20.7-54 31.1-18.2 10.4-43.3 24.9-56 32.2-12.7 7.4-34.2 19.8-48 27.8-13.7 8-35.3 20.4-48 27.7-12.7 7.2-30.7 17.6-40 23-9.3 5.4-29.6 17.1-45 26-15.4 8.9-40.4 23.3-55.5 32-15.1 8.7-37 21.3-48.5 28-11.5 6.7-41.9 24.3-67.5 39-25.6 14.7-52.1 30-59 34-6.9 4-19 11-27 15.5-8 4.6-16.9 9.4-19.7 10.7-2.9 1.3-11.3 4.1-31.8 10.3h-67.5l-14.7-4.9c-8.2-2.6-18.2-6.5-22.3-8.6-4.1-2.1-17-9.2-28.5-15.8-11.5-6.6-32.2-18.6-46-26.5-13.7-8-34-19.6-45-26-11-6.3-25.6-14.7-32.5-18.7-6.9-4-19.5-11.3-28-16.2-8.5-5-20.2-11.7-26-15-5.8-3.2-26.5-15.2-46-26.5-19.5-11.2-54.8-31.6-78.5-45.3-23.6-13.6-52.5-30.3-64-37-11.5-6.7-33.1-19.2-48-27.7-14.8-8.6-37.3-21.5-50-28.8-12.6-7.3-34.5-19.9-48.5-28-14-8.1-33.1-19.1-42.5-24.5-9.3-5.4-24.2-14-33-19-8.8-5-38.9-22.4-67-38.7-28-16.2-55-32.1-60-35.3-5.9-3.8-12.9-9.7-20.2-17.2-8.4-8.3-13.5-14.6-19.6-24.1-4.6-7-10-15.6-11.9-19.2-2-3.6-5.2-10.5-7.2-15.5-2-5-5.4-15.1-11.6-36v-876.5l4.5-15.8c3.4-11.9 6.3-19.4 11.9-30.7 4.1-8.3 10.2-19.1 13.5-24 3.3-4.9 8.9-12.3 12.3-16.4 3.5-4.1 10.2-10.9 14.9-15 4.8-4.2 13.1-10.4 18.5-13.7 5.5-3.4 30.4-17.9 55.4-32.4 25-14.4 54.1-31.2 64.5-37.3 10.5-6.1 32.3-18.7 48.5-28 16.2-9.3 43.2-24.8 60-34.5 16.8-9.6 43.3-24.9 59-34 15.7-9.1 32.1-18.6 36.5-21.2 4.4-2.5 18.4-10.6 31-17.9 12.7-7.4 37.6-21.8 55.5-32 17.9-10.3 56.4-32.5 85.5-49.3 29.2-16.8 60-34.5 68.5-39.5 8.5-4.9 28.3-16.4 44-25.5 15.7-9.1 42.5-24.5 59.5-34.3 17-9.8 36.9-21.2 44-25.5 7.2-4.2 17.3-9.9 22.5-12.7 5.2-2.8 13.8-6.5 19-8.3 5.2-1.7 14.5-4.3 20.5-5.6 6-1.4 11.2-2.7 11.4-2.9 0.2-0.3 10.6-0.5 23-0.5z"/>
</svg>