<svg version="1.2" xmlns="http://www.w3.org/2000/svg" viewBox="0 0 2000 2000" width="2000" height="2000">
	<title>hexagon-white-svg</title>
	<style>
		.s0 { fill: #ffffff } 
	</style>
	<path id="Path 0" class="s0" d="m1496.1 138.8c18.6 10.6 22.1 12.9 27.6 18.1 3.5 3.4 10 10.1 14.6 14.9 4.6 5.1 11.2 13.6 15.4 20.2 4 6.3 12.6 20.6 19.1 31.9 6.5 11.3 19.2 33.4 28.2 49.1 9.1 15.7 17.9 31 19.7 34 1.7 3 10.9 19 20.5 35.5 9.5 16.5 20.6 35.5 24.5 42.5 4.1 6.8 14 24.1 22.3 38.4 8.2 14.4 31.1 54 50.7 88.1 19.7 34.1 40.7 70.5 46.8 81 6.1 10.5 19.4 33.6 29.8 51.4 10.3 17.9 29.9 51.7 43.6 75.5 13.7 23.6 32.2 55.7 41.3 71.5 9.1 15.6 19.1 32.9 22.2 38.4 3.2 5.6 9.9 17 14.8 25.5 4.8 8.6 14.2 24.8 20.7 36 6.6 11.3 14.5 25.4 17.7 31.4 3.3 5.9 7.2 14 8.7 17.9 1.6 3.9 4.2 12.8 5.9 19.8 1.8 7 3.5 18.3 4.1 25.2 0.4 7 0.7 17.5 0.5 23.5-0.1 5.9-0.9 14.3-1.5 18.7-0.6 4.4-2.6 14.2-7.6 35.5l-439.5 761.2-10.3 9.6c-5.6 5.3-13.1 12-16.6 14.7-3.5 2.7-10 7.3-14.5 10.1-4.6 2.8-13.7 7.9-20.5 11.2-8.6 4.2-17.3 7.5-28.2 10.4-8.7 2.4-19.3 4.6-23.6 5-4.4 0.4-22.3 0.8-39.8 0.8-17.5 0.1-42.4 0.1-55.5 0.1-13 0-40.7 0-61.7 0-21 0-48.6 0.1-61.3 0.1-12.7 0-41.3-0.1-63.4-0.1-22.2-0.2-48.2-0.2-57.7-0.2-9.6 0-25.4 0.1-35.2 0.1-9.9 0.1-33.5 0.1-52.5-0.1-19.1 0-44.8 0-57.2 0.1-12.4 0.1-30.9 0-41 0-10.1-0.1-35.9-0.1-57.1-0.1-21.2 0-56.4 0-78 0-21.6 0.1-46 0.1-54.3 0.1-8.3 0-25.6 0-38.6-0.1-13.1 0-32 0.1-42.1 0-10.2 0-27.1 0-37.5-0.1-10.5 0-22.9-0.1-27.6-0.3-4.7 0-15.1-1.6-37.8-6.5l-61.9-35.7-9.8-11.1c-5.4-6.1-12.9-15.7-16.5-21.4-3.6-5.7-18.2-30.1-32.1-54.4-14-24.1-32.9-56.7-41.9-72.4-9.1-15.7-18.9-32.9-21.9-38.1-3-5.2-12.3-21.1-20.5-35.5-8.3-14.2-21.9-37.8-30.4-52.3-8.5-14.6-17.9-31-21.1-36.5-3.2-5.5-11.6-20.2-18.7-32.5-7.2-12.4-16.4-28.4-20.5-35.5-4.1-7.1-9-15.5-10.7-18.6-1.8-2.9-10.6-18.3-19.6-34-9.1-15.7-23.4-40.7-32.1-55.5-8.6-14.9-27.4-47.5-41.9-72.4-14.4-25-30.4-52.7-35.5-61.5-5.1-8.7-14.5-25.2-21.1-36.5-6.5-11.2-15.2-26.3-19.3-33.4-4.2-7.2-14.8-25.7-23.5-41.3-8.8-15.6-17.1-30.4-18.4-33.1-1.4-2.8-4.4-12.4-6.9-21.4-3.4-12.9-4.6-20.1-5.4-32.7-0.5-8.8-0.6-20.9-0.2-26.7 0.4-5.8 2.5-18.6 8.5-46.4l440.5-763 10.3-9.7c5.7-5.2 14.3-12.5 19.2-16.1 4.8-3.5 13.4-9.1 19.2-12.5 5.8-3.4 15.1-8 20.8-10.5 5.7-2.4 15.2-5.7 21.2-7.2 5.9-1.4 14.9-3.1 20-3.7 5-0.4 13.9-0.9 19.7-1.1 5.7-0.1 32.3-0.1 59-0.2 26.7 0 57 0 67.6 0 10.4 0 23.2 0 28.3-0.1 5.1 0 20.1 0 33.4 0.1 13.4 0.1 47.1 0.1 75 0.2 27.9 0 66.4 0 85.5-0.1 19.1-0.1 47-0.2 61.9-0.3 14.9 0 33.4 0 41 0 7.6 0 39.5 0.2 70.9 0.2 31.4 0 63.6 0.1 71.6 0.1 7.9 0 22.7 0 32.9-0.1 10.2 0 26.8 0 36.9 0 10.2 0.1 39.1 0 64.1 0.1 25.1 0 54.2-0.1 64.7-0.1 10.5 0.1 24.8 0 31.8 0 6.9 0 16.3 0.3 20.7 0.6 4.3 0.4 10.8 1.3 14.4 2 3.6 0.8 12 2.9 18.9 4.8 12.5 3.4 12.6 3.3 33.8 15.5z"/>
</svg>