<svg version="1.2" xmlns="http://www.w3.org/2000/svg" viewBox="0 0 2000 2000" width="2000" height="2000">
	<title>New Project</title>
	<style>
		.s0 { fill: #7c1919 } 
	</style>
	<path id="Path 0" class="s0" d="m999.5 6.1c11.5 0 22.8 0.4 25 0.9 2.2 0.6 7.4 1.7 11.5 2.5 4.1 0.8 12.3 3 18.3 5 5.9 1.9 13.1 4.7 15.9 6.1 2.9 1.5 9.3 5 14.3 7.9 5 2.8 15.7 9.1 24 14 8.2 4.8 18.8 10.9 23.5 13.5 4.7 2.6 15 8.6 23 13.2 8 4.6 22.2 12.8 31.5 18.3 9.3 5.4 27.1 15.6 39.5 22.8 12.4 7.1 26.8 15.5 32 18.6 5.2 3 12.9 7.4 17 9.7 4.1 2.2 15.8 8.9 26 14.9 10.2 5.9 28 16.2 39.5 22.8 11.5 6.6 30 17.3 41 23.7 11 6.4 31.7 18.3 46 26.5 14.3 8.2 27.6 15.8 29.5 17 1.9 1.2 14.3 8.4 27.5 16 13.2 7.6 28.3 16.3 33.5 19.3 5.2 3.1 12.4 7.2 16 9.2 3.6 2.1 20.9 12 38.5 22.2 17.6 10.1 36.5 21.1 42 24.3 5.5 3.2 15 8.6 21 12 6 3.4 14.5 8.3 18.8 10.9 4.2 2.5 7.9 4.6 8.2 4.6 0.3 0 3.3 1.7 6.7 3.9 3.5 2.1 15.5 9.1 26.8 15.6 11.3 6.5 24.5 14.2 29.5 17 5 2.8 16.4 9.4 25.5 14.7 9.1 5.2 25.7 14.8 37 21.3 11.3 6.5 22.3 12.9 24.5 14.4 2.2 1.4 7.2 5.1 11 8.2 3.8 3.1 10.8 9.6 15.4 14.5 4.6 4.9 11.7 14.1 15.9 20.4 4.2 6.3 10.2 16.7 13.4 23 3.2 6.3 6.9 14.9 8.2 19 1.4 4.1 3.7 12 8.1 27.5v879l-2.8 10c-1.6 5.5-4 13.4-5.4 17.5-1.4 4.1-3.9 10.4-5.5 14-1.6 3.6-6.4 12.3-10.6 19.4-4.2 7-10.5 16.3-13.8 20.5-3.4 4.2-9.7 11-14 15.1-4.4 4.1-9.7 8.9-11.9 10.6-2.2 1.7-9 6-15 9.6-6 3.6-17.1 10-24.5 14.3-7.4 4.3-20.7 12-29.5 17-8.8 5.1-24.5 14.2-35 20.2-10.5 6-25.1 14.5-32.5 18.8-7.4 4.3-18.7 10.8-25 14.5-6.3 3.6-15.1 8.7-19.5 11.2-4.4 2.6-23.8 13.7-43 24.8-19.3 11.1-36.6 21.1-38.5 22.1-1.9 1.1-4.2 2.3-5 2.9-0.8 0.5-4.9 2.9-9 5.3-4.1 2.4-24.4 14.1-45 26-20.6 11.8-42.5 24.4-48.5 27.9-6 3.5-14.8 8.6-19.5 11.3-4.7 2.7-18.2 10.5-30 17.3-11.8 6.8-28.9 16.7-38 21.9-9.1 5.3-19.4 11.3-23 13.4-3.6 2-18 10.4-32 18.5-14 8.1-29.1 16.7-33.5 19.1-4.4 2.5-12 6.9-17 9.8-5 2.9-20.5 11.9-34.5 20-14 8.1-32.9 19-42 24.3-9.1 5.2-22.8 13.1-30.5 17.5-7.7 4.5-19.4 11.2-26 15-6.6 3.8-16.7 9.7-22.5 13-5.8 3.3-14.1 8.2-18.5 10.8-4.4 2.5-10.4 5.8-13.3 7.3-2.8 1.4-8.5 3.7-12.5 5-3.9 1.3-11 3.6-15.7 5-8.4 2.5-8.9 2.6-75 2.6l-12.3-3.6c-6.7-2-15.1-4.9-18.7-6.3-3.6-1.5-13.3-6.6-21.5-11.3-8.3-4.7-20.2-11.6-26.5-15.3-6.3-3.7-18-10.4-26-15-8-4.6-19.7-11.3-26-15-6.3-3.7-19.1-11.1-28.5-16.4-9.4-5.4-25.8-14.9-36.5-21.1-10.7-6.2-24.7-14.3-31-18-6.3-3.7-13.1-7.5-15-8.5-1.9-1-8.2-4.6-14-8-5.8-3.4-18.1-10.6-27.5-16-9.4-5.4-19.9-11.4-23.5-13.5-3.6-2.1-19.1-11.1-34.5-20-15.4-9-36.1-20.9-46-26.5-9.9-5.7-23.2-13.3-29.5-17-6.3-3.7-17.4-10.1-24.5-14.3-7.1-4.1-15.9-9.2-19.5-11.2-3.6-2-12.6-7.2-20-11.5-7.4-4.3-16.4-9.5-20-11.5-3.6-2-11.9-6.8-18.5-10.7-6.6-3.9-22.8-13.2-36-20.8-13.2-7.6-32.8-18.9-43.5-25-10.7-6.1-32.6-18.7-48.5-27.9-15.9-9.2-33.1-19.2-38-22.1-4.9-2.8-10.8-6.2-13-7.5-2.2-1.3-11.2-6.4-20-11.5-8.8-5-22.1-12.7-29.5-17-7.4-4.3-18.4-10.7-24.5-14.3-6.1-3.6-12.8-7.9-15-9.6-2.2-1.7-7.5-6.5-11.9-10.6-4.3-4.1-10.6-10.9-14-15.1-3.3-4.2-9.6-13.5-13.8-20.5-4.2-7.1-8.9-15.6-10.4-18.9-1.4-3.3-3.7-8.9-5.1-12.5-1.3-3.6-3.8-11.7-8.8-29.5v-879l2.8-10c1.5-5.5 3.9-13.4 5.2-17.5 1.4-4.1 5.1-12.7 8.3-19 3.2-6.3 9.2-16.7 13.4-23 4.2-6.3 11.3-15.5 15.9-20.4 4.6-4.9 11.6-11.5 15.4-14.6 3.8-3.2 16.4-11.3 28-18 11.6-6.8 34.7-20.2 51.5-29.8 16.8-9.7 37.5-21.6 46-26.5 8.5-4.9 19.3-11.2 24-14 4.7-2.7 10.1-5.9 12-7 1.9-1 9.8-5.5 17.5-10 7.7-4.4 16.9-9.7 20.5-11.7 3.6-2.1 16.2-9.4 28-16.2 11.8-6.9 25.6-14.8 30.5-17.5 4.9-2.8 15.7-9 24-13.9 8.2-4.8 17.9-10.4 21.5-12.4 3.6-2.1 12.4-7.1 19.5-11.2 7.1-4.1 19.8-11.5 28-16.3 8.2-4.8 28.5-16.5 45-25.9 16.5-9.5 37-21.3 45.5-26.3 8.5-5 26.3-15.2 39.5-22.8 13.2-7.6 31.2-17.9 40-23 8.8-5.1 19.4-11.2 23.5-13.6 4.1-2.3 12.7-7.3 19-10.9 6.3-3.7 22.3-12.9 35.5-20.5 13.2-7.6 38.9-22.5 57-33 18.1-10.5 37.3-21.5 42.5-24.4 5.2-3 15.4-8.9 22.5-13.1 7.1-4.2 17-9.9 22-12.7 5-2.8 10.4-5.8 12-6.6 1.6-0.8 8-3.2 14-5.1 6-2 14.4-4.3 18.5-5.1 4.1-0.8 9.1-1.9 11-2.4 1.9-0.5 13-0.9 24.5-1z"/>
</svg>