<svg version="1.2" xmlns="http://www.w3.org/2000/svg" viewBox="0 0 2000 2000" width="2000" height="2000">
	<title>hexagon-black-svg</title>
	<style>
		.s0 { fill: #ffffff } 
	</style>
	<path id="Path 0" class="s0" d="m999 6.1c21.4-0.1 25.6 0.2 33 1.9 4.7 1.2 13.7 3.7 20 5.6 6.6 2.1 16.6 6.2 23.5 9.8 6.6 3.5 21.2 11.6 32.5 18.1 11.3 6.5 33.3 19.3 49 28.4 15.7 9 31 17.9 34 19.6 3 1.8 19 11 35.5 20.5 16.5 9.5 35.6 20.5 42.5 24.5 6.9 3.9 24.2 13.9 38.5 22.2 14.3 8.3 53.9 31.2 88 50.9 34.1 19.7 70.5 40.7 81 46.7 10.5 6.1 33.6 19.4 51.5 29.7 17.9 10.3 51.8 29.8 75.5 43.5 23.7 13.6 55.8 32.2 71.5 41.3 15.7 9 33 19 38.5 22.2 5.5 3.2 17 9.8 25.5 14.7 8.5 5 24.7 14.3 36 20.8 11.3 6.5 25.2 14.7 31 18.3 5.8 3.5 13.2 8.6 16.5 11.2 3.3 2.6 10 9 15 14.2 5 5.1 12.2 14.1 16.1 19.8 3.9 5.8 9.4 14.8 12.2 20 2.8 5.2 6.4 12.9 8.1 17 1.6 4.1 4.8 13.6 11.1 34.5v879l-4.1 13.5c-2.2 7.4-5.4 16.9-7 21-1.7 4.1-5.1 11.3-7.6 16-2.5 4.7-7.9 13.7-12.1 20-5.3 7.9-11.2 15.1-19.2 23.1-6.3 6.4-14.4 13.6-18 16.1-3.6 2.5-18.9 11.8-34 20.6-15.1 8.8-36.7 21.3-48 27.8-11.3 6.5-35.3 20.4-53.5 30.9-18.2 10.5-42 24.4-53 30.7-11 6.4-35.8 20.6-55 31.6-19.3 11-41.8 23.9-50 28.7-8.3 4.8-22 12.8-30.5 17.7-8.5 5-29 16.8-45.5 26.2-16.5 9.5-38.8 22.4-49.5 28.6-10.7 6.3-26.7 15.5-35.5 20.5-8.8 5-31.1 17.9-49.5 28.5-18.4 10.6-48.8 28.2-67.5 39-18.7 10.9-39.8 23.1-47 27.2-7.2 4.2-22.2 12.8-33.5 19.3-11.3 6.5-27.7 16-36.5 21-8.8 5.1-23.4 13.5-32.5 18.7-9.1 5.2-19.9 11.3-24 13.5-4.1 2.3-13.9 6.2-36 13.3h-71.5l-14-4.7c-7.7-2.6-19-7.2-25-10.3-6-3.1-30.8-17-55-31-24.2-13.9-56.8-32.7-72.5-41.8-15.7-9.1-32.8-19-38-22-5.2-3-21.2-12.2-35.5-20.5-14.3-8.2-37.9-21.8-52.5-30.1-14.6-8.4-31-17.9-36.5-21.1-5.5-3.2-20.1-11.7-32.5-18.8-12.4-7.1-28.4-16.4-35.5-20.5-7.1-4.1-15.5-8.9-18.5-10.7-3-1.7-18.3-10.6-34-19.7-15.7-9-40.6-23.5-55.5-32-14.9-8.6-47.5-27.4-72.5-41.8-25-14.4-52.7-30.4-61.5-35.5-8.8-5-25.2-14.5-36.5-21-11.3-6.5-26.4-15.2-33.5-19.3-7.2-4.1-25.6-14.9-41-24-15.4-9.1-30-17.8-32.5-19.5-2.5-1.7-9.9-8.5-16.6-15.1-9.4-9.4-14.1-15.1-21-25.6-4.9-7.4-11-17.8-13.6-23-2.5-5.2-7.1-17.4-15.8-44.5v-881l4.1-13.5c2.3-7.4 6.1-18 8.5-23.5 2.4-5.5 7.1-14.7 10.4-20.5 3.3-5.8 9.1-14.5 12.8-19.5 3.7-4.9 10.3-12.5 14.7-16.8 4.4-4.2 11.4-10.2 15.5-13.2 4.1-2.9 11.6-7.8 16.5-10.8 4.9-3 27.9-16.3 51-29.7 23.1-13.3 49.4-28.5 58.5-33.8 9.1-5.2 20.1-11.6 24.5-14.2 4.4-2.6 17.4-10.1 29-16.7 11.6-6.6 40.8-23.4 65-37.3 24.2-13.9 57.5-33.2 74-42.8 16.5-9.6 40.6-23.7 53.5-31.2 12.9-7.5 28.9-16.7 35.5-20.5 6.6-3.8 34.3-19.6 61.5-35.3 27.2-15.7 55.1-31.7 62-35.7 6.9-4 19.7-11.4 28.5-16.5 8.8-5.1 23.2-13.4 32-18.5 8.8-5 33.8-19.5 55.5-32 21.7-12.5 46.9-27.1 56-32.4 9.1-5.2 21.5-12.4 27.5-15.9 6-3.4 14.3-7.9 18.3-9.8 3.9-1.8 10-4.3 13.4-5.5 3.5-1.1 11.9-3.5 18.8-5.3 12.5-3.3 12.6-3.4 37-3.5z"/>
</svg>