<?xml version="1.0" encoding="UTF-8"?>
<!DOCTYPE svg PUBLIC "-//W3C//DTD SVG 1.1//EN" "http://www.w3.org/Graphics/SVG/1.1/DTD/svg11.dtd">
<svg xmlns="http://www.w3.org/2000/svg" version="1.1" width="1000px" height="1000px" style="shape-rendering:geometricPrecision; text-rendering:geometricPrecision; image-rendering:optimizeQuality; fill-rule:evenodd; clip-rule:evenodd" xmlns:xlink="http://www.w3.org/1999/xlink">
<g><path style="opacity:0.996" fill="#d84747" d="M 485.5,-0.5 C 494.833,-0.5 504.167,-0.5 513.5,-0.5C 521.586,1.36128 529.586,3.86128 537.5,7C 656.272,75.8918 775.272,144.558 894.5,213C 911.457,221.11 924.457,233.276 933.5,249.5C 885.465,277.182 837.465,304.848 789.5,332.5C 785.398,327.895 781.064,323.395 776.5,319C 768.527,317.837 760.527,317.003 752.5,316.5C 747.265,314.55 741.598,313.883 735.5,314.5C 695.558,310.06 655.558,306.06 615.5,302.5C 611.382,301.291 607.049,300.624 602.5,300.5C 596.167,299.833 589.833,299.167 583.5,298.5C 578.265,296.55 572.598,295.883 566.5,296.5C 563.645,295.197 560.645,295.197 557.5,296.5C 582.276,324.397 607.276,352.063 632.5,379.5C 641.679,362.494 655.679,351.66 674.5,347C 679.5,346.833 684.5,346.667 689.5,346.5C 698.291,346.663 706.958,347.663 715.5,349.5C 717.515,350.924 719.848,351.59 722.5,351.5C 728.969,353.77 735.302,356.436 741.5,359.5C 739.819,361.008 737.819,362.008 735.5,362.5C 715.515,355.916 695.182,354.416 674.5,358C 656.621,364.049 643.621,375.549 635.5,392.5C 633.058,394.121 631.725,396.454 631.5,399.5C 626.747,407.597 625.081,416.263 626.5,425.5C 591.426,446.566 556.093,467.232 520.5,487.5C 519.508,487.328 518.842,487.662 518.5,488.5C 483.967,508.263 449.634,528.263 415.5,548.5C 377.005,569.913 338.671,591.58 300.5,613.5C 300.5,575.833 300.5,538.167 300.5,500.5C 330.835,500.667 361.168,500.5 391.5,500C 449.001,494.183 488.834,464.683 511,411.5C 523.194,375.916 523.528,340.249 512,304.5C 489.817,252.14 450.317,223.307 393.5,218C 327.834,217.5 262.168,217.333 196.5,217.5C 195.835,369.504 196.501,521.17 198.5,672.5C 154.168,698.669 109.501,724.335 64.5,749.5C 59.8169,741.466 56.6502,732.799 55,723.5C 54.3333,574.5 54.3333,425.5 55,276.5C 59.8215,254.006 71.3215,235.839 89.5,222C 213.564,150.306 337.564,78.6392 461.5,7C 469.388,3.75732 477.388,1.25732 485.5,-0.5 Z"/></g>
<g><path style="opacity:1" fill="#fefefe" d="M 300.5,613.5 C 266.862,633.657 232.862,653.323 198.5,672.5C 196.501,521.17 195.835,369.504 196.5,217.5C 262.168,217.333 327.834,217.5 393.5,218C 450.317,223.307 489.817,252.14 512,304.5C 523.528,340.249 523.194,375.916 511,411.5C 488.834,464.683 449.001,494.183 391.5,500C 361.168,500.5 330.835,500.667 300.5,500.5C 300.5,538.167 300.5,575.833 300.5,613.5 Z"/></g>
<g><path style="opacity:0.996" fill="#8d2e2e" d="M 933.5,249.5 C 938.958,257.597 942.458,266.597 944,276.5C 944.667,425.5 944.667,574.5 944,723.5C 937.928,751.836 922.094,772.669 896.5,786C 776.67,854.747 657.003,923.747 537.5,993C 531.165,995.5 524.832,997.666 518.5,999.5C 505.833,999.5 493.167,999.5 480.5,999.5C 474.168,997.666 467.835,995.5 461.5,993C 337.5,921.333 213.5,849.667 89.5,778C 79.2117,770.212 70.8783,760.712 64.5,749.5C 109.501,724.335 154.168,698.669 198.5,672.5C 232.862,653.323 266.862,633.657 300.5,613.5C 338.671,591.58 377.005,569.913 415.5,548.5C 415.333,602.834 415.5,657.168 416,711.5C 422.756,775.862 455.256,822.029 513.5,850C 561.247,868.93 609.914,871.597 659.5,858C 732.913,833.011 772.58,781.845 778.5,704.5C 779.499,629.002 779.833,553.335 779.5,477.5C 781.735,477.795 783.735,477.461 785.5,476.5C 790.364,475.935 795.031,474.435 799.5,472C 800.701,471.097 801.535,469.931 802,468.5C 803.122,456.525 803.622,444.525 803.5,432.5C 819.801,434.467 836.134,436.133 852.5,437.5C 852.829,450.011 852.495,462.345 851.5,474.5C 849.79,482.944 848.79,491.611 848.5,500.5C 848.018,506.66 847.351,512.66 846.5,518.5C 845.004,524.605 844.337,530.938 844.5,537.5C 844.5,537.833 844.5,538.167 844.5,538.5C 843.848,539.449 843.514,540.615 843.5,542C 843.608,543.681 844.275,544.848 845.5,545.5C 845.842,546.338 846.508,546.672 847.5,546.5C 848.635,548.213 850.302,548.88 852.5,548.5C 855.5,548.5 858.5,548.5 861.5,548.5C 863.553,548.598 865.22,547.931 866.5,546.5C 867.78,545.069 869.447,544.402 871.5,544.5C 868.346,520.464 865.012,496.464 861.5,472.5C 860.856,461.116 861.523,450.116 863.5,439.5C 871.786,440.899 880.12,441.399 888.5,441C 855.322,404.989 822.322,368.822 789.5,332.5C 837.465,304.848 885.465,277.182 933.5,249.5 Z"/></g>
<g><path style="opacity:1" fill="#fefefe" d="M 566.5,296.5 C 571.944,297.884 577.611,298.55 583.5,298.5C 589.833,299.167 596.167,299.833 602.5,300.5C 602.611,301.117 602.944,301.617 603.5,302C 607.486,302.499 611.486,302.666 615.5,302.5C 655.558,306.06 695.558,310.06 735.5,314.5C 741.004,315.365 746.671,316.032 752.5,316.5C 760.527,317.003 768.527,317.837 776.5,319C 781.064,323.395 785.398,327.895 789.5,332.5C 822.322,368.822 855.322,404.989 888.5,441C 880.12,441.399 871.786,440.899 863.5,439.5C 862.791,438.596 861.791,438.263 860.5,438.5C 860.172,450.012 860.505,461.346 861.5,472.5C 865.012,496.464 868.346,520.464 871.5,544.5C 869.447,544.402 867.78,545.069 866.5,546.5C 864.219,546.077 862.552,546.744 861.5,548.5C 858.5,548.5 855.5,548.5 852.5,548.5C 851.448,546.744 849.781,546.077 847.5,546.5C 846.508,546.672 845.842,546.338 845.5,545.5C 844.631,543.283 844.298,540.95 844.5,538.5C 844.5,538.167 844.5,537.833 844.5,537.5C 845.747,531.37 846.414,525.037 846.5,518.5C 847.351,512.66 848.018,506.66 848.5,500.5C 849.809,498.429 850.475,495.929 850.5,493C 851.045,486.842 851.378,480.675 851.5,474.5C 852.495,462.345 852.829,450.011 852.5,437.5C 836.134,436.133 819.801,434.467 803.5,432.5C 803.622,444.525 803.122,456.525 802,468.5C 801.535,469.931 800.701,471.097 799.5,472C 795.031,474.435 790.364,475.935 785.5,476.5C 783.167,476.5 780.833,476.5 778.5,476.5C 778.5,552.5 778.5,628.5 778.5,704.5C 772.58,781.845 732.913,833.011 659.5,858C 609.914,871.597 561.247,868.93 513.5,850C 455.256,822.029 422.756,775.862 416,711.5C 415.5,657.168 415.333,602.834 415.5,548.5C 449.634,528.263 483.967,508.263 518.5,488.5C 519.167,558.5 519.833,628.5 520.5,698.5C 524.166,739.668 546.166,764.834 586.5,774C 636.544,776.423 666.711,753.256 677,704.5C 677.5,621.501 677.667,538.501 677.5,455.5C 676.127,455.657 674.793,455.49 673.5,455C 659.994,449.804 647.327,443.138 635.5,435C 632.268,431.938 629.268,428.771 626.5,425.5C 625.081,416.263 626.747,407.597 631.5,399.5C 633.199,397.434 634.532,395.1 635.5,392.5C 643.621,375.549 656.621,364.049 674.5,358C 695.182,354.416 715.515,355.916 735.5,362.5C 749.203,367.178 762.536,372.844 775.5,379.5C 777.259,382.19 779.593,382.856 782.5,381.5C 781.15,380.05 779.484,379.383 777.5,379.5C 766.572,371.166 754.572,364.5 741.5,359.5C 735.302,356.436 728.969,353.77 722.5,351.5C 720.562,349.837 718.228,349.171 715.5,349.5C 706.958,347.663 698.291,346.663 689.5,346.5C 684.5,346.667 679.5,346.833 674.5,347C 655.679,351.66 641.679,362.494 632.5,379.5C 607.276,352.063 582.276,324.397 557.5,296.5C 560.645,295.197 563.645,295.197 566.5,296.5 Z"/></g>
<g><path style="opacity:1" fill="#e27472" d="M 566.5,296.5 C 572.598,295.883 578.265,296.55 583.5,298.5C 577.611,298.55 571.944,297.884 566.5,296.5 Z"/></g>
<g><path style="opacity:1" fill="#f5cdcc" d="M 602.5,300.5 C 607.049,300.624 611.382,301.291 615.5,302.5C 611.486,302.666 607.486,302.499 603.5,302C 602.944,301.617 602.611,301.117 602.5,300.5 Z"/></g>
<g><path style="opacity:1" fill="#d84747" d="M 299.5,309.5 C 324.502,309.333 349.502,309.5 374.5,310C 395.212,313.376 408.379,325.209 414,345.5C 418.23,372.199 408.73,392.032 385.5,405C 381.877,406.156 378.211,407.156 374.5,408C 349.502,408.5 324.502,408.667 299.5,408.5C 299.5,375.5 299.5,342.5 299.5,309.5 Z"/></g>
<g><path style="opacity:1" fill="#e5807e" d="M 735.5,314.5 C 741.598,313.883 747.265,314.55 752.5,316.5C 746.671,316.032 741.004,315.365 735.5,314.5 Z"/></g>
<g><path style="opacity:1" fill="#f2bbbb" d="M 715.5,349.5 C 718.228,349.171 720.562,349.837 722.5,351.5C 719.848,351.59 717.515,350.924 715.5,349.5 Z"/></g>
<g><path style="opacity:1" fill="#9b4745" d="M 741.5,359.5 C 754.572,364.5 766.572,371.166 777.5,379.5C 776.833,379.5 776.167,379.5 775.5,379.5C 762.536,372.844 749.203,367.178 735.5,362.5C 737.819,362.008 739.819,361.008 741.5,359.5 Z"/></g>
<g><path style="opacity:1" fill="#d3aeae" d="M 775.5,379.5 C 776.167,379.5 776.833,379.5 777.5,379.5C 779.484,379.383 781.15,380.05 782.5,381.5C 779.593,382.856 777.259,382.19 775.5,379.5 Z"/></g>
<g><path style="opacity:1" fill="#eeabaa" d="M 635.5,392.5 C 634.532,395.1 633.199,397.434 631.5,399.5C 631.725,396.454 633.058,394.121 635.5,392.5 Z"/></g>
<g><path style="opacity:1" fill="#8d2e2e" d="M 626.5,425.5 C 629.268,428.771 632.268,431.938 635.5,435C 647.327,443.138 659.994,449.804 673.5,455C 674.793,455.49 676.127,455.657 677.5,455.5C 677.667,538.501 677.5,621.501 677,704.5C 666.711,753.256 636.544,776.423 586.5,774C 546.166,764.834 524.166,739.668 520.5,698.5C 520.5,628.167 520.5,557.833 520.5,487.5C 556.093,467.232 591.426,446.566 626.5,425.5 Z"/></g>
<g><path style="opacity:1" fill="#c18f8f" d="M 863.5,439.5 C 861.523,450.116 860.856,461.116 861.5,472.5C 860.505,461.346 860.172,450.012 860.5,438.5C 861.791,438.263 862.791,438.596 863.5,439.5 Z"/></g>
<g><path style="opacity:1" fill="#b27171" d="M 785.5,476.5 C 783.735,477.461 781.735,477.795 779.5,477.5C 779.833,553.335 779.499,629.002 778.5,704.5C 778.5,628.5 778.5,552.5 778.5,476.5C 780.833,476.5 783.167,476.5 785.5,476.5 Z"/></g>
<g><path style="opacity:1" fill="#c08c8c" d="M 518.5,488.5 C 518.842,487.662 519.508,487.328 520.5,487.5C 520.5,557.833 520.5,628.167 520.5,698.5C 519.833,628.5 519.167,558.5 518.5,488.5 Z"/></g>
<g><path style="opacity:1" fill="#dfc3c3" d="M 851.5,474.5 C 851.378,480.675 851.045,486.842 850.5,493C 850.475,495.929 849.809,498.429 848.5,500.5C 848.79,491.611 849.79,482.944 851.5,474.5 Z"/></g>
<g><path style="opacity:1" fill="#d6b3b2" d="M 846.5,518.5 C 846.414,525.037 845.747,531.37 844.5,537.5C 844.337,530.938 845.004,524.605 846.5,518.5 Z"/></g>
<g><path style="opacity:1" fill="#d4afaf" d="M 844.5,538.5 C 844.298,540.95 844.631,543.283 845.5,545.5C 844.275,544.848 843.608,543.681 843.5,542C 843.514,540.615 843.848,539.449 844.5,538.5 Z"/></g>
<g><path style="opacity:1" fill="#cfa6a6" d="M 866.5,546.5 C 865.22,547.931 863.553,548.598 861.5,548.5C 862.552,546.744 864.219,546.077 866.5,546.5 Z"/></g>
<g><path style="opacity:1" fill="#d0a8a8" d="M 847.5,546.5 C 849.781,546.077 851.448,546.744 852.5,548.5C 850.302,548.88 848.635,548.213 847.5,546.5 Z"/></g>
</svg>
