<svg version="1.2" xmlns="http://www.w3.org/2000/svg" viewBox="0 0 1000 1000" width="1000" height="1000">
	<title>logo-svg</title>
	<style>
		.s0 { fill: #d74848 } 
		.s1 { fill: #8c2f2f } 
		.s2 { fill: #fffefe } 
		.s3 { fill: #8c2e2e } 
		.s4 { fill: #8f4140 } 
		.s5 { fill: #d64848 } 
	</style>
	<path id="Layer" class="s0" d="m489 1c7.4 0 14.7 0 22.8 0.3 11.5 1.8 21.7 5.1 31.1 10.8 12.2 7.2 24.5 14.1 36.8 21.2 108.4 62.6 216.8 125.2 325.2 187.7 13 7.4 22.7 17.8 29.5 30.8-1.4 0.5-2.6 0.8-3.6 1.4-20.1 11.6-40.2 23.3-60.4 34.9-25.6 14.7-51.3 29.4-77.3 44-4.9-6.3-10.9-8.7-18.8-9.3-23.4-1.9-46.7-4.6-70-7-23.5-2.5-47-5.1-70.4-7.6q-27.3-3-54.6-5.9c-8.4-0.8-16.7-1.6-25.1-2.4q-0.2 0.5-0.5 1c26.2 29.3 52.4 58.5 79 88.2 1.6-2.6 2.9-4.6 4.2-6.7 6.2-9.9 14.2-18.1 25-22.9 25.4-11.3 50.4-6.6 75.2 3.1-2.2 1.7-4.4 3.1-7 4.6-15.5-3.1-30.6-5.6-46.3-2.6-16.7 3.2-29.7 11.4-40.1 24.6-9.6 12.2-15 26.2-19.5 40.9-0.7 0.3-1.2 0.5-1.7 0.7-33.7 19.4-67.5 38.9-101.6 58.5-34 19.6-67.7 39-101.4 58.4-1 0.5-1.8 1.4-3 2.2-28.2 16.1-56 32.1-83.8 48-10.1 5.7-20.3 11.3-30.4 16.6-0.1-37.7-0.1-75-0.1-112.7 2.5 0 4.3 0 6.1 0 26.8 0 53.7 0.4 80.5-0.3 37.2-0.9 69.1-14.9 94.5-42.1 32.6-34.9 43.5-76.9 37.3-123.4-8.8-67.2-64.5-116.3-132.3-116.9-62-0.6-124-0.2-185.9-0.2-1.3 0-2.5 0.3-3.9 0.4-0.1 1.2-0.2 2-0.2 2.8q-0.1 168-0.2 335.9c0 38.7 0.1 77.3 0.1 116.3-1.1 1.2-1.9 2.3-3 3q-60.1 34.6-120.2 69.1c-2.6 1.5-5.4 2.5-8.4 3.5-6.5-11.5-10.6-23.3-10.6-36.3 0-141.4-0.3-282.9 0.3-424.3 0.1-28.5 14.3-50.9 38.1-66.6 11.7-7.6 24.1-14.1 36.2-21.1 108.2-62.4 216.3-124.8 324.5-187.1 7.9-4.5 16.5-7.6 24.9-11.1 2.9-1.2 6-1.6 9-2.4z"/>
	<path id="Layer" class="s1" d="m793.5 332.2c25.6-14.7 51.3-29.4 76.9-44.1 20.2-11.6 40.3-23.3 60.4-34.9 1-0.6 2.2-0.9 3.8-1.1 6.9 11.4 11.4 23.2 11.4 36.2 0 142 0.3 283.9-0.3 425.9-0.1 28-14 50.7-37.7 65.7-23.6 14.9-48.3 28.2-72.5 42.2-83.2 48-166.2 96.2-249.6 143.8-22.1 12.7-42.7 28.3-67.9 35.1-11 0-22 0-33.8-0.3-8.9-3.5-17.6-5.7-25.1-10-59.5-34-118.8-68.3-178.2-102.6-62.3-36-124.7-71.9-187-108.1-12.1-7-21-17.3-27-30 2.7-1.1 5.5-2.1 8.1-3.6q60.1-34.5 120.2-69.1c1.1-0.7 1.9-1.8 3.3-3 2-0.9 3.6-1.3 5-2.1 12.6-7.2 25.2-14.3 37.7-21.6 20.4-11.8 40.7-23.8 61.1-35.7 10.1-5.7 20.3-11.3 30.4-17 27.8-15.9 55.6-31.9 83.8-47.5 0.5 55.9 0.4 111.4 0.5 166.9 0 8.5 0.1 17.1 1.3 25.4 10.2 67.1 48.8 111.3 111.8 134 38.2 13.9 78 14.6 117.7 5.9 45.3-10 81.3-34 106.9-72.9 18.3-27.9 25.7-58.8 25.6-91.9-0.2-73.1-0.1-146.3-0.1-219.5 0-1.9 0-3.9 0-5.5 7.6-1 14.7-1.7 21.7-3 8.1-1.5 11.2-5.6 11.3-13.7 0.1-9.5 0.4-19 0.7-28.4 0-1 0.3-1.9 0.6-3.3 17.1 2 34.1 4 50.7 6 0 11.7 0.9 23-0.1 34.2-2.3 25-5.4 49.9-8.5 74.8-0.3 3.1 0.3 4.6 3.1 5.7 7 2.8 14 2.5 21 0.5 4.4-1.1 6-3.7 5.2-8.4-3.4-20.4-7.1-40.7-9.5-61.2-1.7-14.6-1.5-29.4-2.2-44.5 10.8 1.2 20.3 2.2 31.1 3.3-4.2-4.4-7.5-7.8-10.7-11.3-26.2-28.7-52.5-57.3-78.7-86-7.6-8.3-15-16.9-22.4-25.3z"/>
	<path id="Layer" class="s2" d="m793.1 332.1c7.8 8.5 15.2 17.1 22.8 25.4 26.2 28.7 52.5 57.3 78.7 86 3.2 3.5 6.5 6.9 10.7 11.3-10.8-1.1-20.3-2.1-31.1-3.3 0.7 15.1 0.5 29.9 2.2 44.5 2.4 20.5 6.1 40.8 9.5 61.2 0.8 4.7-0.8 7.3-5.2 8.4-7 2-14 2.3-21-0.5-2.8-1.1-3.4-2.6-3.1-5.7 3.1-24.9 6.2-49.8 8.5-74.8 1-11.2 0.1-22.5 0.1-34.2-16.6-2-33.6-4-50.7-6-0.3 1.4-0.6 2.3-0.6 3.3-0.3 9.4-0.6 18.9-0.7 28.4-0.1 8.1-3.2 12.2-11.3 13.7-7 1.3-14.1 2-21.7 3 0 1.6 0 3.6 0 5.5 0 73.2-0.1 146.4 0.1 219.5 0.1 33.1-7.3 64-25.6 91.9-25.6 38.9-61.6 62.9-106.9 72.9-39.7 8.7-79.5 8-117.7-5.9-63-22.7-101.6-66.9-111.8-134-1.2-8.3-1.3-16.9-1.3-25.4-0.1-55.5 0-111-0.1-167 0.8-1.2 1.6-2.1 2.6-2.6 33.7-19.4 67.4-38.8 101.5-57.9 0.3 50.2 0.3 100.2 0.4 150.2 0.1 27.1-0.1 54.3 0.6 81.4 0.8 31.5 22.7 62.3 54.2 70.9 28.3 7.8 54.2 3.2 76.4-16.4 18.5-16.4 26.8-37.6 26.8-62.2 0-80.1 0-160.2 0-240.4 0.1-2.9-0.9-4.2-3.6-5.4-11.1-5.2-22.4-10.2-33-16.3-8.5-4.8-16.8-10.5-18.3-21.6 4.2-14.6 9.6-28.6 19.2-40.8 10.4-13.2 23.4-21.4 40.1-24.6 15.7-3 30.8-0.5 46.6 2.8 17.7 6.3 34.7 12.4 51.7 18.6-13.7-10.3-28.7-18.3-45-23.8-24.8-9.3-49.8-14-75.2-2.7-10.8 4.8-18.8 13-25 22.9-1.3 2.1-2.6 4.1-4.2 6.7-26.6-29.7-52.8-58.9-79-88.2q0.3-0.5 0.5-1c8.4 0.8 16.7 1.6 25.1 2.4q27.3 2.9 54.6 5.9c23.4 2.5 46.9 5.1 70.4 7.6 23.3 2.4 46.6 5.1 70 7 7.9 0.6 13.9 3 18.8 9.3z"/>
	<path id="Layer" fill-rule="evenodd" class="s2" d="m302.3 614.5c-20.4 12.3-40.7 24.3-61.1 36.1-12.5 7.3-25.1 14.4-37.7 21.6-1.4 0.8-3 1.2-4.9 1.8-0.4-38.7-0.5-77.3-0.5-116q0.1-167.9 0.2-335.9c0-0.8 0.1-1.6 0.2-2.8 1.4-0.1 2.6-0.4 3.9-0.4 61.9 0 123.9-0.4 185.9 0.2 67.8 0.6 123.5 49.7 132.3 116.9 6.2 46.5-4.7 88.5-37.3 123.4-25.4 27.2-57.3 41.2-94.5 42.1-26.8 0.7-53.7 0.3-80.5 0.3-1.8 0-3.6 0-6.1 0 0 37.7 0 75 0.1 112.7zm-1.3-261c0 18.7 0 37.5 0 56.5 2.4 0 4.1 0 5.7 0q33.5-0.1 67-0.2c0.8 0 1.6-0.2 2.4-0.3 23.7-4.3 39.5-23.4 40.3-48.8 0.9-27.3-17.8-48.6-45.1-49.7-22.6-0.9-45.3-0.3-67.9-0.4-0.6 0-1.3 0.3-2.4 0.5 0 13.8 0 27.6 0 42.4z"/>
	<path id="Layer" class="s3" d="m624.2 430.1c1.8 11 10.1 16.7 18.6 21.5 10.6 6.1 21.9 11.1 33 16.3 2.7 1.2 3.7 2.5 3.6 5.4 0 80.2 0 160.3 0 240.4 0 24.6-8.3 45.8-26.8 62.2-22.2 19.6-48.1 24.2-76.4 16.4-31.5-8.6-53.4-39.4-54.2-70.9-0.7-27.1-0.5-54.3-0.6-81.4-0.1-50-0.1-100-0.1-150.4 33.7-19.9 67.5-39.4 101.2-58.8 0.5-0.2 1-0.4 1.7-0.7z"/>
	<path id="Layer" class="s4" d="m737.1 362.6c16.3 5.1 31.3 13.1 45 23.4-17-6.2-34-12.3-51.3-18.6 1.9-1.7 4.1-3.1 6.3-4.8z"/>
	<path id="Layer" class="s5" d="m301 353c0-14.3 0-28.1 0-41.9 1.1-0.2 1.8-0.5 2.4-0.5 22.6 0.1 45.3-0.5 67.9 0.4 27.3 1.1 46 22.4 45.1 49.7-0.8 25.4-16.6 44.5-40.3 48.8-0.8 0.1-1.6 0.3-2.4 0.3q-33.5 0.1-67 0.2c-1.6 0-3.3 0-5.7 0 0-19 0-37.8 0-57z"/>
</svg>